<?xml version="1.0" standalone="no"?>
<!DOCTYPE svg PUBLIC "-//W3C//DTD SVG 20010904//EN"
 "http://www.w3.org/TR/2001/REC-SVG-20010904/DTD/svg10.dtd">
<svg version="1.0" xmlns="http://www.w3.org/2000/svg"
 width="331.000000pt" height="331.000000pt" viewBox="0 0 331.000000 331.000000"
 preserveAspectRatio="xMidYMid meet">
<metadata>
Created by potrace 1.16, written by Peter Selinger 2001-2019
</metadata>
<g transform="translate(0.000000,331.000000) scale(0.100000,-0.100000)"
fill="#000000" stroke="none">
<path d="M1447 2203 c-4 -3 -7 -33 -7 -65 0 -70 -8 -69 -51 8 l-31 54 -99 0
c-105 0 -109 -2 -85 -48 7 -15 16 -45 19 -67 4 -22 13 -44 20 -50 19 -14 90
-121 119 -180 51 -102 63 -153 62 -270 -1 -165 -45 -307 -180 -576 -66 -132
-73 -149 -64 -179 6 -20 6 -39 0 -51 -15 -28 -2 -46 38 -53 48 -8 926 -8 984
0 l45 6 0 76 c1 81 -3 93 -59 192 -87 153 -173 406 -184 538 -13 154 38 308
151 457 25 33 48 75 51 95 4 19 13 47 20 62 24 46 20 48 -85 48 l-99 0 -31
-54 c-43 -77 -51 -78 -51 -8 0 45 -4 61 -16 66 -21 8 -459 8 -467 -1z m-69
-87 c38 -64 39 -67 10 -62 -13 3 -55 5 -93 5 l-71 1 -12 43 c-7 23 -15 48 -18
55 -4 9 14 12 73 12 l78 0 33 -54z m532 0 c0 -43 -4 -55 -17 -58 -9 -2 -108
-2 -220 0 l-203 3 0 54 0 55 220 0 220 0 0 -54z m262 49 c4 -4 -16 -76 -28
-103 -2 -4 -184 -8 -184 -4 0 2 15 28 32 58 l33 54 71 0 c39 0 73 -2 76 -5z
m-72 -145 c0 -7 -145 -10 -415 -10 -270 0 -415 3 -415 10 0 7 145 10 415 10
270 0 415 -3 415 -10z m-30 -45 c0 -10 -40 -84 -48 -88 -4 -3 -157 -7 -341 -8
l-334 -3 -23 45 c-13 24 -23 47 -24 52 0 4 173 7 385 7 212 0 385 -2 385 -5z
m-70 -130 c0 -2 -11 -38 -25 -79 -45 -134 -31 -314 39 -500 14 -38 26 -72 26
-77 0 -5 -157 -9 -355 -9 -195 0 -355 4 -355 8 0 5 13 44 29 88 49 135 64 223
59 343 -4 75 -11 122 -27 161 -11 30 -21 58 -21 63 0 4 142 7 315 7 173 0 315
-2 315 -5z m137 -859 c41 -83 60 -130 56 -145 l-5 -21 -507 2 -506 3 -3 22
c-2 12 25 75 60 142 l62 121 391 -1 390 0 62 -123z m53 -226 c0 -7 -177 -10
-510 -10 -333 0 -510 3 -510 10 0 7 177 10 510 10 333 0 510 -3 510 -10z"/>
<path d="M1623 1721 c-76 -35 -133 -148 -120 -242 24 -179 203 -260 322 -145
44 41 58 76 32 76 -7 0 -21 -14 -31 -31 -44 -74 -142 -92 -214 -39 -47 34 -54
53 -50 131 3 46 6 54 23 54 18 0 21 -9 26 -90 5 -80 6 -72 8 70 4 195 3 187
19 192 9 4 12 -37 12 -180 0 -213 7 -230 59 -148 38 59 38 72 2 113 l-28 32
24 47 25 47 -21 40 c-12 23 -29 46 -38 51 -15 8 -11 10 20 11 48 0 102 -22
119 -49 7 -12 21 -21 31 -21 17 0 17 2 -4 31 -26 37 -90 69 -139 69 -19 0 -54
-9 -77 -19z"/>
<path d="M1750 1525 c0 -133 2 -155 15 -155 26 0 65 50 65 82 0 18 -10 39 -25
54 l-25 25 22 30 22 30 -23 44 c-43 81 -51 63 -51 -110z"/>
</g>
</svg>
