<?xml version="1.0" standalone="no"?>
<!DOCTYPE svg PUBLIC "-//W3C//DTD SVG 20010904//EN"
 "http://www.w3.org/TR/2001/REC-SVG-20010904/DTD/svg10.dtd">
<svg version="1.0" xmlns="http://www.w3.org/2000/svg"
 width="149.000000pt" height="165.000000pt" viewBox="0 0 149.000000 165.000000"
 preserveAspectRatio="xMidYMid meet">
<metadata>
Created by potrace 1.16, written by Peter Selinger 2001-2019
</metadata>
<g transform="translate(0.000000,165.000000) scale(0.100000,-0.100000)"
fill="#000000" stroke="none">
<path d="M518 1553 c-15 -4 -18 -16 -18 -66 0 -54 -2 -59 -15 -47 -8 8 -25 35
-38 60 l-24 45 -101 3 c-56 1 -102 0 -102 -3 0 -3 7 -22 15 -42 8 -19 15 -46
15 -58 0 -13 19 -49 43 -81 99 -136 142 -230 160 -346 23 -158 -30 -359 -166
-632 -56 -111 -79 -169 -78 -190 4 -54 4 -61 -2 -76 -4 -8 -3 -22 3 -30 8 -13
75 -15 477 -18 257 -2 495 -1 529 3 l61 6 0 77 c1 74 -1 81 -56 187 -156 304
-211 516 -181 693 14 86 77 219 144 307 25 33 49 75 52 95 4 19 13 47 20 62
24 46 20 48 -85 48 l-100 0 -33 -60 c-18 -33 -36 -60 -40 -60 -5 0 -8 27 -8
59 0 40 -4 61 -13 64 -17 6 -436 7 -459 0z m-81 -87 c17 -28 30 -53 28 -56 -2
-4 -141 -4 -175 -1 -3 1 -11 20 -18 44 -7 23 -15 47 -18 54 -4 9 16 12 73 11
l78 -1 32 -51z m534 27 c2 -16 3 -40 1 -55 l-3 -28 -220 0 -219 0 0 55 0 55
219 0 219 0 3 -27z m261 22 c7 -8 -26 -104 -37 -107 -5 -2 -47 -1 -91 2 l-81
5 29 53 30 52 72 0 c40 0 75 -2 78 -5z m-72 -145 c0 -7 -145 -10 -415 -10
-270 0 -415 3 -415 10 0 7 145 10 415 10 270 0 415 -3 415 -10z m-30 -46 c0
-4 -11 -27 -25 -53 l-25 -46 -323 2 c-177 1 -329 2 -338 2 -12 1 -59 77 -59
96 0 3 173 5 385 5 212 0 385 -3 385 -6z m-70 -129 c0 -3 -11 -38 -25 -79 -46
-138 -28 -336 48 -523 l26 -63 -360 0 c-197 0 -359 4 -359 8 0 5 13 44 29 88
48 134 64 225 59 344 -4 74 -11 121 -27 160 -11 30 -21 58 -21 63 0 4 142 7
315 7 173 -1 315 -3 315 -5z m138 -863 c42 -84 61 -133 57 -145 -7 -16 -38
-17 -514 -15 l-506 3 -3 22 c-2 12 25 75 60 142 l62 121 391 0 390 -1 63 -127z
m52 -222 c0 -7 -177 -10 -510 -10 -333 0 -510 3 -510 10 0 7 177 10 510 10
333 0 510 -3 510 -10z"/>
<path d="M681 1068 c-117 -58 -156 -229 -78 -345 58 -86 153 -116 236 -73 42
21 91 73 91 96 0 24 -24 15 -42 -16 -50 -88 -188 -94 -248 -10 -17 24 -20 41
-18 92 3 55 5 63 23 63 18 0 21 -9 26 -90 7 -111 9 -83 10 107 1 116 4 148 15
152 12 4 14 -25 14 -178 0 -206 7 -227 54 -156 39 59 41 82 12 117 -31 37 -31
36 -5 89 19 40 19 45 4 74 -9 17 -25 40 -36 51 -19 19 -19 19 17 19 43 0 101
-26 117 -52 7 -10 20 -18 30 -18 17 0 17 2 -4 31 -26 37 -90 68 -139 69 -19 0
-55 -10 -79 -22z"/>
<path d="M810 876 c0 -85 4 -157 8 -160 5 -3 23 8 40 24 40 37 43 80 7 116
l-25 25 22 30 22 30 -23 44 c-43 81 -51 63 -51 -109z"/>
</g>
</svg>
